<svg xmlns="http://www.w3.org/2000/svg" width="287.359" height="211.395"><g fill="#4e90e4"><path d="M1 175.94c0 19.028 15.426 34.455 34.457 34.455s34.457-15.427 34.457-34.455-15.426-34.458-34.457-34.458S1 156.9 1 175.94zm56.713 0c0 12.292-9.964 22.255-22.256 22.255A22.26 22.26 0 0 1 13.2 175.94a22.26 22.26 0 0 1 22.256-22.256c12.292 0 22.256 9.963 22.256 22.256zm-20.186-63.022v12.126h32.387v12.276H1v-24.402h4.88l2.9 12.202 18.065 2.156 7.148-14.36z"/><path d="M1 112.918c0 10.087 8.178 18.264 18.264 18.264s18.263-8.177 18.263-18.264-8.177-18.264-18.263-18.264A18.27 18.27 0 0 0 1 112.918zm24.277 1.306h.013v10.896H13.238v-10.896h.014c.074-3.265 2.73-5.9 6.012-5.9a6.02 6.02 0 0 1 6.013 5.889zM3.07 78.3h68.913v12.2H3.07z"/><path d="M59.783 47.828h12.2v42.664h-12.2zm-32.386 0h12.2v42.664h-12.2zm-24.327 0h12.2v42.664H3.07zm0-16.032h68.913v12.2H3.07zM3.07 1h68.913v12.2H3.07z"/><path d="M3.07 31.796l2.734 12.2L71.984 13.2 69.257 1zM119.76 1v209.395H76.962V1z"/><path d="M76.962 167.6H286.36v42.796H76.962z"/></g><path d="M193.61 21.306l-36.26 36.26c8.648 7.49 17.77 6.44 27.356-3.15 6.12-6.115 10.045-12.936 11.78-20.465l12.377 12.38c-2.39 7.888-7.69 15.94-15.904 24.154-8.975 8.975-18.43 13.452-28.363 13.435s-19.352-4.48-28.256-13.38c-9.226-9.23-13.857-19.215-13.894-29.964s3.852-20.032 11.67-27.845c8.104-8.107 16.78-11.97 26.025-11.592s17.998 4.697 26.248 12.946zm-26.437 5.376c-7.958-7.962-15.16-8.722-21.603-2.28-2.75 2.75-3.992 6.27-3.72 10.557s1.894 8.352 4.86 12.186z" fill="#4edfe4"/><path d="M279.6 82.35h-22.955V71.066h-.3c-5.27 8.803-13.074 13.205-23.4 13.205-7.63 0-13.627-2.163-18.004-6.488s-6.56-10.095-6.56-17.3c0-15.248 9.03-24.053 27.094-26.407l21.342-2.84c0-8.6-4.654-12.896-13.967-12.896-9.37 0-18.273 2.8-26.72 8.366V8.425c3.377-1.74 7.996-3.274 13.86-4.605 5.855-1.33 11.193-1.997 16.004-1.997 22.416 0 33.625 11.183 33.625 33.546v46.98zm-22.8-31.934V45.12l-14.277 1.843c-7.88 1.025-11.82 4.58-11.82 10.67 0 2.763.957 5.028 2.88 6.795 1.916 1.765 4.518 2.647 7.8 2.647 4.557 0 8.268-1.574 11.13-4.723s4.298-7.125 4.298-11.935zm-65.9 57.65c-2.918-1.586-6.322-2.38-10.2-2.38-5.27 0-9.4 1.932-12.36 5.797s-4.453 9.124-4.453 15.775v37.54h-24.255V86.2h24.255v14.585h.307c3.84-10.646 10.75-15.967 20.728-15.967 2.56 0 4.555.3 5.988.922v22.337zm87.205 56.73H253.92v-43.68c0-12.18-4.35-18.27-13.047-18.27-4.2 0-7.652 1.6-10.36 4.833s-4.07 7.32-4.07 12.285v44.83H202.18V86.2h24.262v12.436h.307c5.785-9.57 14.2-14.354 25.256-14.354 17.4 0 26.1 10.797 26.1 32.393v48.133z" fill="#4e90e4"/></svg>